<svg width="24" height="24" viewBox="0 0 24 24" fill="none" xmlns="http://www.w3.org/2000/svg">
<g clip-path="url(#clip0_44_14)">
<mask id="mask0_44_14" style="mask-type:luminance" maskUnits="userSpaceOnUse" x="0" y="0" width="24" height="24">
<path d="M0 0H24V24H0V0Z" fill="black"/>
<path d="M0 0H24V24H0V0Z" fill="white"/>
</mask>
<g mask="url(#mask0_44_14)">
<g opacity="0.1">
<path d="M12 24C18.6274 24 24 18.6274 24 12C24 5.37258 18.6274 0 12 0C5.37258 0 0 5.37258 0 12C0 18.6274 5.37258 24 12 24Z" fill="#FF0000"/>
</g>
<path d="M6.31775 16.2681L16.2674 6.31837L17.6817 7.73258L7.73196 17.6823L6.31775 16.2681Z" fill="#FF0000"/>
<path d="M6.34241 7.80762L7.80683 6.3432L17.6561 16.1925L16.1917 17.6569L6.34241 7.80762Z" fill="#FF0000"/>
</g>
</g>
<defs>
<clipPath id="clip0_44_14">
<rect width="24" height="24" fill="white"/>
</clipPath>
</defs>
</svg>
